<?xml version="1.0" encoding="utf-8"?>
<!-- Generator: Adobe Illustrator 16.0.0, SVG Export Plug-In . SVG Version: 6.00 Build 0)  -->
<!DOCTYPE svg PUBLIC "-//W3C//DTD SVG 1.1//EN" "http://www.w3.org/Graphics/SVG/1.1/DTD/svg11.dtd">
<svg version="1.1" xmlns="http://www.w3.org/2000/svg" xmlns:xlink="http://www.w3.org/1999/xlink" x="0px" y="0px" width="312px"
	 height="321.17px" viewBox="0 0 312 321.17" style="enable-background:new 0 0 312 321.17;" xml:space="preserve">
<style type="text/css">
<![CDATA[
	.st0{fill:#0598CF;stroke:#FFFFFF;stroke-width:4;stroke-miterlimit:10;}
	.st1{fill:#FFFFFF;stroke:#0598CF;stroke-width:3.1812;stroke-miterlimit:10;}
	.st2{fill:none;stroke:#231F20;stroke-width:3;stroke-linecap:round;stroke-miterlimit:10;}
	.st3{fill:#FFFFFF;stroke:#000000;stroke-width:4.7718;stroke-miterlimit:10;}
	.st4{fill:#231F20;}
	.st5{fill:#FFFFFF;stroke:#0598CF;stroke-width:2;stroke-miterlimit:10;}
	.st6{fill:#FFFFFF;stroke:#231F20;stroke-width:3;stroke-miterlimit:10;}
	.st7{fill:#2B328A;}
	.st8{fill:#000099;stroke:#FFFFFF;stroke-width:4;stroke-miterlimit:10;}
	.st9{fill:none;stroke:#231F20;stroke-width:2.0501;stroke-linecap:round;stroke-miterlimit:10;}
	.st10{fill:#2B328A;stroke:#FFFFFF;stroke-width:4;stroke-miterlimit:10;}
	.st11{fill:#99CCFF;}
	.st12{fill:#61B7F7;}
	.st13{fill:#FFFFFF;}
	.st14{fill:#FFFFFF;stroke:#231F20;stroke-width:4.7718;stroke-miterlimit:10;}
	.st15{fill:#000099;}
	.st16{fill:#0598CF;}
	.st17{fill:#0598CF;stroke:#0197CE;stroke-width:2;stroke-miterlimit:10;}
	.st18{stroke:#FFFFFF;stroke-width:4;stroke-miterlimit:10;}
	.st19{fill:#FFFFFF;stroke:#000000;stroke-width:3;stroke-miterlimit:10;}
]]>
</style>
<g id="Layer_1">
	<g>
		<path class="st4" d="M-760.84,724.77h-54.21c-1.59,0-3.09,0.32-4.48,0.97c-1.4,0.65-2.61,1.52-3.66,2.61
			c-1.04,1.1-1.89,2.37-2.54,3.81c-0.65,1.44-0.97,2.96-0.97,4.55c0,3.38,1.09,6.25,3.29,8.59c2.19,2.34,5.03,3.51,8.51,3.51h54.06
			v18.07h-54.21c-1.59,0-3.09,0.32-4.48,0.97c-1.4,0.64-2.61,1.51-3.66,2.6c-1.04,1.09-1.89,2.35-2.54,3.78
			c-0.65,1.43-0.97,2.94-0.97,4.53c0,3.76,1.09,6.83,3.29,9.21c2.19,2.38,5.03,3.56,8.51,3.56h54.06v18.07h-51.37
			c-5.97,0-11.04-0.87-15.19-2.61c-4.15-1.74-7.51-4.06-10.07-6.94c-2.56-2.89-4.42-6.15-5.57-9.78c-1.16-3.63-1.73-7.34-1.73-11.13
			c0-4.18,0.85-8.19,2.56-12.02c1.71-3.83,4.57-6.94,8.58-9.33c-4.02-2.39-6.88-5.53-8.58-9.41c-1.71-3.88-2.56-7.67-2.56-11.35
			c0-4.38,0.65-8.44,1.96-12.17c1.3-3.73,3.29-6.94,5.95-9.63s6.04-4.78,10.14-6.27c4.1-1.49,8.93-2.24,14.51-2.24h51.37V724.77z"/>
	</g>
	<g>
		<path class="st4" d="M437.41,341.23c0,6.8-1.96,11.92-5.87,15.35c-3.91,3.44-9.37,5.15-16.37,5.15h-36.12V349.4h38.46
			c2.18,0,3.98-0.83,5.41-2.48s2.14-3.67,2.14-6.04c0-2.23-0.71-4.17-2.14-5.83c-1.43-1.66-3.23-2.49-5.41-2.49h-19.79
			c-4.08,0-7.53-0.61-10.36-1.84c-2.82-1.22-5.1-2.82-6.83-4.79c-1.73-1.97-2.99-4.17-3.78-6.58c-0.78-2.41-1.17-4.81-1.17-7.19
			c0-2.86,0.41-5.52,1.23-8.01c0.82-2.48,2.14-4.68,3.96-6.58c1.82-1.9,4.12-3.4,6.93-4.49c2.8-1.09,6.17-1.63,10.12-1.63h35.09
			v12.34h-37.03c-1.09,0-2.11,0.22-3.06,0.66c-0.95,0.44-1.79,1.04-2.5,1.79c-0.71,0.75-1.29,1.62-1.73,2.6
			c-0.44,0.99-0.66,2.02-0.66,3.11c0,2.31,0.78,4.27,2.34,5.87c1.56,1.6,3.46,2.4,5.7,2.4h19.44c6.79,0,12.15,1.72,16.09,5.15
			c3.94,3.44,5.91,8.55,5.91,15.35V341.23z"/>
		<path class="st4" d="M500.05,303.79h-22.95c-5.37,0-9.71,1.39-13.01,4.18c-3.3,2.79-5.08,6.87-5.36,12.24h41.32v12.34h-41.32
			v29.18h-12.34v-39.89c0-4.69,0.64-8.91,1.94-12.65c1.29-3.74,3.25-6.92,5.87-9.54c2.62-2.62,5.87-4.64,9.74-6.07
			s8.4-2.14,13.57-2.14h22.55V303.79z"/>
		<path class="st4" d="M552.18,291.45c4.01,0,7.44,0.53,10.27,1.58c2.83,1.06,5.14,2.52,6.93,4.39c1.78,1.87,3.07,4.06,3.86,6.58
			c0.79,2.52,1.18,5.24,1.18,8.16c0,2.52-0.62,5.1-1.85,7.75c-1.23,2.65-3.22,4.79-5.96,6.43c2.74,1.63,4.73,3.76,5.96,6.38
			c1.23,2.62,1.85,5.36,1.85,8.21c0,2.59-0.4,5.14-1.18,7.65c-0.79,2.52-2.07,4.74-3.86,6.68c-1.78,1.94-4.08,3.5-6.88,4.69
			c-2.8,1.19-6.24,1.79-10.32,1.79h-35.09V349.4h36.93c2.38,0,4.32-0.81,5.81-2.43c1.5-1.62,2.25-3.72,2.25-6.29
			c0-1.08-0.22-2.11-0.66-3.09c-0.44-0.98-1.02-1.84-1.73-2.59c-0.71-0.74-1.55-1.33-2.5-1.77s-1.97-0.66-3.06-0.66h-37.03v-12.34
			h36.93c2.38,0,4.32-0.8,5.81-2.4c1.5-1.6,2.25-3.55,2.25-5.87c0-1.09-0.22-2.12-0.66-3.11c-0.44-0.98-1.02-1.85-1.73-2.6
			c-0.71-0.75-1.55-1.34-2.5-1.79c-0.95-0.44-1.97-0.66-3.06-0.66h-37.03v-12.34H552.18z"/>
		<path class="st4" d="M614.41,361.74c-21.36,0-32.03-11.7-32.03-35.09v-0.31c0.07-23.26,10.78-34.89,32.13-34.89h25.5v12.34h-28.67
			c-5.58,0-9.74,1.83-12.5,5.5c-2.75,3.66-4.13,9.47-4.13,17.4c0,15.13,5.51,22.7,16.53,22.7h28.67v12.34H614.41z"/>
	</g>
	<g>
		<path class="st4" d="M-947.22,779.58c0,9.96-2.86,17.45-8.59,22.48c-5.73,5.03-13.71,7.54-23.97,7.54h-52.87v-18.07h56.3
			c3.18,0,5.82-1.21,7.92-3.64s3.14-5.37,3.14-8.83c0-3.26-1.04-6.11-3.14-8.53s-4.73-3.64-7.92-3.64h-28.97
			c-5.97,0-11.03-0.9-15.16-2.69c-4.13-1.79-7.47-4.13-10-7.02c-2.54-2.89-4.38-6.1-5.53-9.63c-1.15-3.53-1.72-7.04-1.72-10.53
			c0-4.18,0.6-8.09,1.81-11.72c1.2-3.63,3.14-6.84,5.8-9.63c2.66-2.79,6.04-4.98,10.14-6.57c4.1-1.59,9.04-2.39,14.81-2.39h51.37
			v18.07H-1008c-1.59,0-3.09,0.32-4.48,0.97c-1.39,0.65-2.61,1.52-3.66,2.61c-1.04,1.1-1.89,2.37-2.54,3.81
			c-0.65,1.44-0.97,2.96-0.97,4.55c0,3.38,1.14,6.25,3.43,8.59c2.29,2.34,5.07,3.51,8.35,3.51h28.46c9.93,0,17.78,2.52,23.55,7.54
			c5.76,5.03,8.64,12.52,8.64,22.47V779.58z"/>
		<path class="st4" d="M-855.53,724.77h-33.6c-7.87,0-14.21,2.04-19.04,6.12c-4.83,4.08-7.44,10.06-7.84,17.92h60.48v18.07h-60.48
			v42.71h-18.07V751.2c0-6.87,0.94-13.04,2.84-18.52c1.89-5.47,4.75-10.13,8.59-13.96c3.83-3.83,8.59-6.79,14.26-8.88
			s12.29-3.14,19.86-3.14h33V724.77z"/>
		<path class="st4" d="M-700.82,809.59c-31.26,0-46.89-17.12-46.89-51.37v-0.45c0.1-34.05,15.78-51.07,47.04-51.07h37.33v18.07
			h-41.96c-8.17,0-14.26,2.68-18.29,8.05c-4.03,5.37-6.05,13.86-6.05,25.48c0,22.15,8.06,33.23,24.19,33.23h41.96v18.07H-700.82z"/>
	</g>
	<path class="st9" d="M-740.51,595.78c0,0,6.58,13.51-0.08,25.42"/>
	<path class="st9" d="M-740.51,553.37c0,0,6.58,13.51-0.08,25.42"/>
	<path class="st2" d="M-763.14,766.74c0,0-6.58,13.51,0.08,25.42"/>
	<path class="st2" d="M-763.14,724.33c0,0-6.58,13.51,0.08,25.42"/>
	<path class="st13" d="M-759.09,820.32l14-10.73c0,0,7-1.5,4.5,5.37l-9.5,5.36l12.38-4.75c0,0,5.25,1.25,2,5.88l-11.75,4.5
		l10.88-0.88c0,0,3.38,1.75,1,4.38l-11.28,1.38l6.91,1.23c0,0,3.62,3.77-0.25,5.02l-17.88,0.62
		C-758.09,837.7-764.47,829.32-759.09,820.32z"/>
	<path class="st3" d="M232.39,142.26c-1.02,40.81-35.4,73.06-76.78,72.02c-41.38-1.03-74.1-34.96-73.08-75.77
		c1.02-40.81,35.4-73.06,76.78-72.02C200.69,67.52,233.41,101.44,232.39,142.26z"/>
	<path class="st5" d="M1368.65,8.58c-4.44-2.86-1.9-7.35-1.9-7.35l21.68-5.67l-0.01-1.88l-25.78-5.55c-4.12-5,1.41-8.58,1.41-8.58
		l23.95,5.59l-18.87-4.63c-3.58-6.12,2.45-7.16,2.45-7.16l26.58,6.27c10.39,17.97,1.77,30.31,1.77,30.31l-25,6.38
		c-4.8-1.55-2.65-7.96-1.41-8.04l13.28-3.59l-0.17-0.83L1368.65,8.58z"/>
	<polygon class="st11" points="138.96,127.31 137.12,136.94 144.01,143.91 134.28,145.13 129.78,153.83 125.61,144.96 
		115.94,143.37 123.09,136.66 121.62,126.98 130.2,131.7 	"/>
	<polygon class="st11" points="187.92,128.68 186.04,138.53 193.09,145.68 183.13,146.93 178.52,155.84 174.25,146.76 
		164.35,145.12 171.67,138.26 170.16,128.33 178.95,133.17 	"/>
	<path d="M133.22,140.4c0,1.7-1.46,3.08-3.25,3.08c-1.8,0-3.25-1.38-3.25-3.08c0-1.7,1.45-3.08,3.25-3.08
		C131.77,137.32,133.22,138.7,133.22,140.4z"/>
	<ellipse cx="178.72" cy="142.09" rx="3.21" ry="3.04"/>
	<g>
		<path d="M121.05,115.46c0,0,0.13-0.34,0.47-0.82c0.33-0.49,0.88-1.13,1.67-1.74c0.78-0.61,1.81-1.18,3.03-1.56
			c0.3-0.11,0.62-0.16,0.95-0.23c0.33-0.06,0.65-0.15,1-0.15c0.68-0.05,1.38-0.07,2.08,0.03c0.35,0.05,0.7,0.09,1.04,0.17
			c0.34,0.09,0.68,0.21,1.01,0.31c0.33,0.1,0.66,0.22,0.95,0.4c0.3,0.16,0.6,0.31,0.88,0.49c0.58,0.31,1.02,0.79,1.46,1.17
			c0.45,0.38,0.75,0.86,1.04,1.27c0.27,0.43,0.54,0.79,0.67,1.19c0.15,0.38,0.25,0.73,0.34,1.01c0.16,0.56,0.2,0.9,0.2,0.9
			s-0.36-0.08-0.9-0.26c-0.27-0.09-0.59-0.19-0.92-0.33c-0.32-0.15-0.74-0.23-1.13-0.37c-0.4-0.12-0.79-0.31-1.23-0.39
			c-0.44-0.09-0.84-0.29-1.29-0.35c-0.45-0.07-0.87-0.24-1.33-0.28c-0.22-0.04-0.45-0.06-0.67-0.13c-0.22-0.05-0.46-0.04-0.68-0.07
			c-0.45-0.1-0.92-0.08-1.38-0.15c-0.48-0.02-0.95-0.05-1.41-0.07c-0.47,0.01-0.94-0.04-1.4-0.02c-0.47,0-0.92-0.01-1.33-0.01
			c-0.9,0-1.66-0.01-2.18-0.01C121.41,115.47,121.05,115.46,121.05,115.46z"/>
	</g>
	<g>
		<path d="M173.69,116.98c0,0,0.16-0.32,0.54-0.77c0.38-0.46,0.98-1.04,1.82-1.57c0.84-0.54,1.92-1,3.16-1.27
			c0.31-0.09,0.64-0.1,0.96-0.14c0.33-0.03,0.66-0.09,1.01-0.06c0.68,0.01,1.38,0.06,2.07,0.22c0.34,0.09,0.69,0.15,1.02,0.27
			c0.33,0.12,0.65,0.27,0.97,0.41c0.32,0.13,0.63,0.28,0.91,0.48c0.29,0.19,0.57,0.37,0.83,0.57c0.55,0.36,0.94,0.88,1.34,1.3
			c0.41,0.42,0.67,0.93,0.92,1.36c0.23,0.45,0.46,0.84,0.56,1.25c0.12,0.39,0.19,0.75,0.24,1.04c0.11,0.58,0.11,0.92,0.11,0.92
			s-0.35-0.12-0.87-0.35c-0.26-0.12-0.57-0.25-0.89-0.41c-0.3-0.18-0.71-0.3-1.09-0.47c-0.39-0.16-0.75-0.38-1.19-0.51
			c-0.43-0.13-0.81-0.37-1.26-0.47c-0.44-0.11-0.84-0.32-1.29-0.4c-0.22-0.06-0.44-0.11-0.65-0.19c-0.22-0.07-0.45-0.09-0.67-0.14
			c-0.44-0.14-0.91-0.17-1.36-0.27c-0.48-0.07-0.94-0.14-1.4-0.2c-0.47-0.04-0.93-0.13-1.39-0.15c-0.47-0.05-0.92-0.09-1.33-0.13
			c-0.9-0.09-1.65-0.16-2.17-0.21C174.04,117.02,173.69,116.98,173.69,116.98z"/>
	</g>
	<path d="M130.98,85.59c0,0,20.57,17.18,47.22,17.63c0,0,47.68-4.55,56.57,38.68v-16.38c0,0,6.94,5.41,7.48,12.29
		c0.41,5.19,2.33-15.02-3.74-20.48c0,0,8.2,0.57,11.17,4.46c3.54,4.64-4.62-14.01-15.84-17.2c0,0,9.82-3.68,16.83-0.46
		c6.54,3.01-19.64-15.93-23.85-15.93c0,0,4.21-10.92,12.16-8.19c0,0-7.07-12.01-23.37-10.92c-7.5,0.5,8.44-7.85-2.34-7.28
		c-8.65,0.46-18.37-1.07-24.08-3.09c-2.21-0.78-9.53-5.7,2.58-7.56c0,0-7.77-4.79-26.66,2.27c-1.73,0.65-6.55-3.92,2.34-7.56
		c0,0-21.97-6.37-36.47,10.47c0,0-2.8-10.47-11.22-14.56c0,0,6.08,12.74,0,15.93c0,0-10.2-10.99-16.36-9.1c0,0-0.94,8.65,5.14,12.74
		c0,0-23.49-3.1-24.31,10.92c0,0,7.95-7.74,13.56-2.5c0,0-22.75,8.07-21.5,18.66c0,0,11.63-7.01,17.77-2.85
		c0,0-32.02,15.59-31.79,33.56c0,0,16.6-13.16,15.9-6.13c0,0-10.99,28.43,11.22,41.62c0,0-5.32-29.78-2.57-30.72
		c2.23-0.76,8.03,15.21,8.41,12.97c0.76-4.48-11.69-32.09,12.39-47.1c0,0,4.3,6.43,2.34,23.23c-0.82,7,7.72-14.58,6.54-27.44
		c0,0,13.09,17.86,33.43,20.37L130.98,85.59z"/>
	<path class="st14" d="M25.1,1150.36c-1.02,40.81-35.4,73.06-76.78,72.02c-41.38-1.03-74.1-34.96-73.08-75.77
		c1.02-40.81,35.4-73.06,76.78-72.02C-6.6,1075.62,26.12,1109.55,25.1,1150.36z"/>
	<polygon class="st7" points="-68.33,1135.41 -70.17,1145.04 -63.29,1152.01 -73.01,1153.23 -77.52,1161.93 -81.69,1153.06 
		-91.36,1151.47 -84.21,1144.76 -85.68,1135.08 -77.09,1139.81 	"/>
	<polygon class="st7" points="-19.37,1136.78 -21.26,1146.64 -14.21,1153.78 -24.16,1155.03 -28.78,1163.94 -33.05,1154.86 
		-42.95,1153.23 -35.63,1146.36 -37.13,1136.44 -28.34,1141.28 	"/>
	<path class="st4" d="M-74.24,1148.5c0,1.7-1.38,3.08-3.08,3.08c-1.7,0-3.08-1.38-3.08-3.08c0-1.7,1.38-3.08,3.08-3.08
		C-75.62,1145.42-74.24,1146.8-74.24,1148.5z"/>
	<circle class="st4" cx="-28.58" cy="1150.54" r="3.04"/>
	<g>
		<path class="st4" d="M-88.74,1120.95c0,0,0.01-0.36,0.18-0.92c0.16-0.58,0.47-1.35,1.02-2.18c0.54-0.83,1.34-1.7,2.36-2.46
			c0.25-0.21,0.54-0.35,0.82-0.52c0.29-0.16,0.57-0.35,0.89-0.47c0.63-0.27,1.28-0.52,1.98-0.64c0.35-0.06,0.69-0.14,1.04-0.17
			c0.35-0.03,0.71-0.02,1.05-0.03c0.35-0.01,0.69-0.01,1.03,0.07c0.34,0.05,0.67,0.11,0.99,0.18c0.65,0.1,1.22,0.42,1.76,0.63
			c0.55,0.22,0.99,0.57,1.39,0.87c0.4,0.32,0.76,0.57,1.02,0.91c0.27,0.31,0.48,0.61,0.65,0.85c0.34,0.48,0.48,0.79,0.48,0.79
			s-0.37,0.04-0.94,0.04c-0.28,0-0.62,0.01-0.98-0.01c-0.35-0.04-0.77,0.02-1.19,0.01c-0.42,0.01-0.84-0.04-1.29,0.03
			c-0.45,0.06-0.89,0-1.34,0.08c-0.45,0.08-0.9,0.06-1.35,0.16c-0.22,0.04-0.45,0.08-0.67,0.1c-0.23,0.03-0.45,0.11-0.67,0.15
			c-0.46,0.05-0.9,0.22-1.36,0.31c-0.46,0.13-0.92,0.26-1.36,0.39c-0.44,0.16-0.9,0.27-1.33,0.43c-0.45,0.15-0.87,0.29-1.27,0.42
			c-0.86,0.29-1.57,0.53-2.07,0.7C-88.4,1120.84-88.74,1120.95-88.74,1120.95z"/>
	</g>
	<g>
		<path class="st4" d="M-33.71,1119.74c0,0,0.16-0.32,0.54-0.77c0.38-0.46,0.98-1.04,1.82-1.57c0.84-0.54,1.92-1,3.16-1.27
			c0.31-0.09,0.64-0.1,0.96-0.14c0.33-0.03,0.66-0.09,1.01-0.06c0.68,0.01,1.38,0.06,2.07,0.22c0.34,0.09,0.69,0.15,1.02,0.27
			c0.33,0.12,0.65,0.27,0.97,0.41c0.32,0.13,0.63,0.28,0.91,0.48c0.29,0.19,0.57,0.37,0.83,0.57c0.55,0.36,0.94,0.88,1.34,1.3
			c0.41,0.42,0.67,0.93,0.92,1.36c0.23,0.45,0.46,0.84,0.56,1.25c0.12,0.39,0.19,0.75,0.24,1.04c0.11,0.58,0.11,0.92,0.11,0.92
			s-0.35-0.12-0.87-0.35c-0.26-0.12-0.57-0.25-0.89-0.41c-0.3-0.18-0.71-0.3-1.09-0.47c-0.39-0.16-0.75-0.38-1.19-0.51
			c-0.43-0.13-0.81-0.37-1.26-0.47c-0.44-0.11-0.84-0.32-1.29-0.4c-0.22-0.06-0.44-0.11-0.65-0.19c-0.22-0.07-0.45-0.09-0.67-0.14
			c-0.44-0.14-0.91-0.17-1.36-0.28c-0.48-0.07-0.94-0.14-1.4-0.2c-0.47-0.04-0.93-0.13-1.39-0.15c-0.47-0.05-0.92-0.09-1.33-0.13
			c-0.9-0.09-1.65-0.16-2.17-0.21C-33.36,1119.78-33.71,1119.74-33.71,1119.74z"/>
	</g>
	<path class="st4" d="M-76.32,1093.69c0,0,20.57,17.18,47.22,17.63c0,0,47.68-4.55,56.57,38.68v-16.38c0,0,6.94,5.41,7.48,12.29
		c0.41,5.19,2.33-15.02-3.74-20.48c0,0,8.2,0.57,11.17,4.46c3.54,4.64-4.62-14.01-15.84-17.2c0,0,9.82-3.68,16.83-0.46
		c6.54,3.01-19.64-15.93-23.85-15.93c0,0,4.21-10.92,12.16-8.19c0,0-7.07-12.01-23.37-10.92c-7.5,0.5,8.44-7.85-2.34-7.28
		c-8.65,0.46-18.37-1.07-24.08-3.09c-2.21-0.78-9.53-5.7,2.58-7.55c0,0-7.77-4.79-26.66,2.27c-1.73,0.65-6.55-3.92,2.34-7.56
		c0,0-21.97-6.37-36.47,10.47c0,0-2.8-10.47-11.22-14.56c0,0,6.08,12.74,0,15.93c0,0-10.2-10.99-16.36-9.1c0,0-0.94,8.65,5.14,12.74
		c0,0-23.49-3.1-24.31,10.92c0,0,7.95-7.74,13.56-2.5c0,0-22.75,8.07-21.5,18.66c0,0,11.63-7.01,17.77-2.84
		c0,0-32.02,15.59-31.79,33.56c0,0,16.6-13.16,15.9-6.13c0,0-10.99,28.43,11.22,41.62c0,0-5.32-29.78-2.57-30.72
		c2.23-0.76,8.03,15.21,8.41,12.97c0.76-4.48-11.69-32.09,12.39-47.1c0,0,4.3,6.43,2.34,23.22c-0.82,7,7.72-14.58,6.54-27.44
		c0,0,13.09,17.86,33.43,20.37L-76.32,1093.69z"/>
	
		<ellipse transform="matrix(0.9997 0.025 -0.025 0.9997 1.3217 7.4234)" class="st6" cx="-296.19" cy="56.56" rx="47.12" ry="46.47"/>
	<rect x="-286.7" y="70.47" class="st12" width="122.01" height="162.48"/>
	<polygon class="st5" points="-431.17,59.87 -309.16,71.39 -309.16,93.33 -431.17,93.33 	"/>
	<polygon class="st5" points="-431.17,65.02 -309.16,71.39 -309.16,93.33 -431.17,93.33 	"/>
	<polygon class="st16" points="-307.82,48.34 -308.97,54.39 -304.65,58.78 -310.76,59.54 -313.59,65.01 -316.21,59.44 
		-322.29,58.44 -317.8,54.22 -318.72,48.13 -313.33,51.1 	"/>
	<polygon class="st16" points="-277.04,49.2 -278.22,55.4 -273.79,59.89 -280.05,60.68 -282.95,66.28 -285.63,60.57 -291.86,59.54 
		-287.26,55.22 -288.2,48.99 -282.68,52.03 	"/>
	<circle class="st4" cx="-313.47" cy="56.57" r="1.94"/>
	<circle class="st4" cx="-282.49" cy="57.6" r="1.91"/>
	<g>
		<path class="st4" d="M-318.06,41.61c0,0-0.02-0.23,0.05-0.59c0.06-0.37,0.21-0.87,0.49-1.43c0.28-0.56,0.72-1.15,1.31-1.69
			c0.3-0.26,0.63-0.52,1.01-0.73c0.38-0.21,0.77-0.41,1.2-0.54c0.42-0.15,0.86-0.23,1.3-0.27c0.43-0.08,0.87-0.01,1.28,0.02
			c0.41,0.02,0.79,0.18,1.14,0.28c0.36,0.1,0.66,0.29,0.93,0.45c0.27,0.17,0.51,0.31,0.7,0.51c0.19,0.17,0.34,0.34,0.46,0.48
			c0.24,0.28,0.35,0.46,0.35,0.46s-0.23,0.05-0.58,0.09c-0.18,0.02-0.39,0.05-0.61,0.05c-0.22,0-0.49,0.07-0.74,0.09
			c-0.26,0.04-0.53,0.03-0.81,0.1c-0.27,0.06-0.56,0.06-0.83,0.14c-0.28,0.08-0.56,0.1-0.83,0.19c-0.27,0.08-0.55,0.13-0.82,0.25
			c-0.28,0.06-0.55,0.2-0.83,0.28c-0.28,0.11-0.56,0.22-0.82,0.33c-0.54,0.24-1.08,0.48-1.56,0.71c-0.52,0.24-0.95,0.43-1.25,0.57
			C-317.85,41.52-318.06,41.61-318.06,41.61z"/>
	</g>
	<g>
		<path class="st4" d="M-286.04,40.47c0,0,0.11-0.2,0.36-0.47c0.25-0.28,0.65-0.62,1.18-0.94c0.54-0.32,1.23-0.58,2.02-0.72
			c0.39-0.06,0.81-0.1,1.24-0.08c0.43,0.03,0.87,0.07,1.3,0.19c0.43,0.1,0.85,0.27,1.24,0.47c0.41,0.17,0.74,0.46,1.07,0.7
			c0.34,0.24,0.57,0.58,0.81,0.85c0.25,0.27,0.39,0.6,0.54,0.88c0.14,0.29,0.26,0.54,0.31,0.8c0.07,0.25,0.1,0.47,0.13,0.66
			c0.05,0.36,0.05,0.58,0.05,0.58s-0.22-0.08-0.54-0.24c-0.16-0.08-0.35-0.17-0.54-0.28c-0.19-0.12-0.45-0.2-0.68-0.32
			c-0.24-0.11-0.46-0.26-0.74-0.35c-0.27-0.09-0.5-0.25-0.78-0.33c-0.27-0.08-0.52-0.22-0.8-0.28c-0.27-0.08-0.54-0.19-0.83-0.24
			c-0.27-0.1-0.57-0.13-0.85-0.21c-0.3-0.06-0.59-0.11-0.87-0.16c-0.58-0.09-1.17-0.18-1.7-0.24c-0.56-0.08-1.03-0.14-1.36-0.19
			C-285.82,40.5-286.04,40.47-286.04,40.47z"/>
	</g>
	<path class="st4" d="M-312.42,22.11c0,0,12.93,10.8,29.69,11.09c0,0,29.98-2.86,35.56,24.32v-10.3c0,0,4.37,3.4,4.7,7.72
		c0.26,3.26,1.47-9.44-2.35-12.87c0,0,5.16,0.36,7.02,2.8c2.22,2.92-2.91-8.81-9.96-10.81c0,0,6.17-2.32,10.58-0.29
		c4.11,1.89-12.35-10.01-14.99-10.01c0,0,2.65-6.87,7.64-5.15c0,0-4.44-7.55-14.7-6.87c-4.71,0.31,5.3-4.94-1.47-4.58
		c-5.44,0.29-11.55-0.67-15.14-1.94c-1.39-0.49-5.99-3.58,1.62-4.75c0,0-4.89-3.01-16.76,1.43c-1.09,0.41-4.12-2.46,1.47-4.75
		c0,0-13.81-4-22.93,6.58c0,0-1.76-6.58-7.05-9.16c0,0,3.82,8.01,0,10.01c0,0-6.41-6.91-10.29-5.72c0,0-0.59,5.44,3.23,8.01
		c0,0-14.77-1.95-15.29,6.87c0,0,5-4.86,8.52-1.57c0,0-14.3,5.07-13.52,11.73c0,0,7.31-4.41,11.17-1.79c0,0-20.13,9.8-19.99,21.1
		c0,0,10.44-8.27,9.99-3.85c0,0-6.91,17.87,7.05,26.17c0,0-3.35-18.72-1.62-19.31c1.4-0.48,5.05,9.57,5.29,8.15
		c0.48-2.82-7.35-20.17,7.79-29.61c0,0,2.71,4.04,1.47,14.6c-0.51,4.4,4.85-9.17,4.11-17.25c0,0,8.23,11.23,21.02,12.8
		L-312.42,22.11z"/>
	<rect x="384" y="28" class="st12" width="54" height="46.67"/>
</g>
<g id="Layer_2">
	<rect x="-288" y="1169.43" class="st15" width="1672" height="200.27"/>
	<rect x="172.56" y="162" class="st18" width="128.44" height="157.33"/>
	<polygon class="st8" points="-181.27,-34.95 -53.45,-24.81 -53.45,10.09 -181.27,10.09 	"/>
	<rect x="9" y="162" class="st18" width="127.83" height="157.33"/>
	<rect x="136.83" y="162" class="st18" width="34.8" height="157.33"/>
	<rect x="-34.74" y="1169.43" class="st8" width="128.44" height="158"/>
	<polygon class="st10" points="-197.82,1149.64 -70.33,1170.19 -70.94,1205.09 -198.75,1202.85 	"/>
	<polygon class="st10" points="-198.3,1160.94 -70.47,1171.07 -70.47,1205.97 -198.3,1205.97 	"/>
	<rect x="-198.3" y="1172.07" class="st8" width="127.83" height="155.36"/>
	<rect x="-70.47" y="1167.43" class="st8" width="34.8" height="163.83"/>
	<path class="st1" d="M549.83,495.72c9.82-5.32,3.65-12.87,3.65-12.87l-32.81-9.05l0.31-1.11l37.93,10.55
		c8.48-4.77,3.58-11.66,3.58-11.66l-38.36-11.57l29.6,8.93c8.21-5.99,3.32-11.94,3.32-11.94L507.75,443
		c-26.84,34.47-8.75,52.83-8.75,52.83l38.44,9.94c7.82-3.05,5.26-12.33,3.28-12.46l-20.78-4.75l0.14-0.69L549.83,495.72z"/>
	<path class="st1" d="M436.25,185.15c-9.81-5.32-3.65-12.87-3.65-12.87l32.81-9.05l-0.31-1.11l-37.93,10.55
		c-8.48-4.77-3.58-11.66-3.58-11.66l38.36-11.57l-29.6,8.93c-8.21-5.99-3.32-11.94-3.32-11.94l49.31-13.99
		c26.84,34.47,8.75,52.83,8.75,52.83l-38.44,9.94c-7.82-3.05-5.26-12.33-3.28-12.46l20.78-4.75l-0.14-0.69L436.25,185.15z"/>
	<rect x="-431.17" y="71.39" class="st17" width="122.01" height="162.48"/>
	<path class="st5" d="M-405.66,158.15c6.17-3.34,2.3-8.09,2.3-8.09l-20.62-5.69l0.2-0.7l23.85,6.63c5.33-3,2.25-7.33,2.25-7.33
		l-24.12-7.27l18.61,5.61c5.16-3.77,2.09-7.51,2.09-7.51l-31-8.8c-16.88,21.67-5.5,33.21-5.5,33.21l24.17,6.25
		c4.92-1.92,3.31-7.75,2.06-7.83l-13.07-2.99l0.09-0.43L-405.66,158.15z"/>
	<path class="st5" d="M-189.9,158.15c-6.17-3.34-2.29-8.09-2.29-8.09l20.62-5.69l-0.2-0.7l-23.85,6.63c-5.33-3-2.25-7.33-2.25-7.33
		l24.12-7.27l-18.61,5.61c-5.16-3.77-2.09-7.51-2.09-7.51l31-8.8c16.88,21.67,5.5,33.21,5.5,33.21l-24.17,6.25
		c-4.92-1.92-3.3-7.75-2.06-7.83l13.06-2.99l-0.09-0.43L-189.9,158.15z"/>
	<path class="st19" d="M273.25,235.22c-6.27-3.4-2.33-8.23-2.33-8.23l20.97-5.78l-0.2-0.71l-24.25,6.75
		c-5.42-3.05-2.29-7.46-2.29-7.46l24.52-7.4l-18.92,5.71c-5.25-3.83-2.12-7.63-2.12-7.63l31.52-8.95
		c17.16,22.04,5.59,33.77,5.59,33.77l-24.57,6.36c-5-1.95-3.36-7.88-2.1-7.96l13.29-3.04l-0.09-0.44L273.25,235.22z"/>
	<rect x="-309.16" y="69.8" class="st0" width="21.88" height="164.07"/>
	<g>
		<path class="st13" d="M134.32,1286.49c0.82,1.68,1.94,3.01,3.37,4.01c1.43,1,3.12,1.71,5.07,2.14c1.95,0.43,4.03,0.65,6.26,0.65
			c1.27,0,2.65-0.18,4.15-0.54c1.5-0.36,2.89-0.94,4.18-1.73c1.29-0.79,2.37-1.81,3.23-3.06s1.29-2.75,1.29-4.52
			c0-1.36-0.31-2.54-0.92-3.54c-0.61-1-1.41-1.84-2.38-2.52c-0.98-0.68-2.05-1.23-3.23-1.67c-1.18-0.43-2.34-0.78-3.47-1.05
			l-10.81-2.65c-1.41-0.36-2.78-0.82-4.11-1.36s-2.5-1.27-3.5-2.18c-1-0.91-1.8-2.02-2.41-3.33c-0.61-1.31-0.92-2.92-0.92-4.83
			c0-1.18,0.23-2.56,0.68-4.15c0.45-1.59,1.3-3.08,2.55-4.49c1.25-1.4,2.96-2.59,5.13-3.57c2.18-0.97,4.96-1.46,8.36-1.46
			c2.4,0,4.69,0.32,6.87,0.95c2.18,0.64,4.08,1.59,5.71,2.86c1.63,1.27,2.93,2.84,3.91,4.73c0.97,1.88,1.46,4.07,1.46,6.56h-4.62
			c-0.09-1.86-0.51-3.48-1.26-4.86s-1.72-2.54-2.92-3.47c-1.2-0.93-2.58-1.63-4.15-2.11c-1.56-0.48-3.21-0.71-4.93-0.71
			c-1.59,0-3.12,0.17-4.59,0.51c-1.47,0.34-2.77,0.88-3.88,1.63c-1.11,0.75-2.01,1.73-2.69,2.96c-0.68,1.22-1.02,2.74-1.02,4.56
			c0,1.13,0.19,2.12,0.58,2.96c0.38,0.84,0.92,1.55,1.6,2.14c0.68,0.59,1.46,1.07,2.35,1.43c0.88,0.36,1.82,0.66,2.82,0.88
			l11.83,2.92c1.72,0.45,3.34,1.01,4.86,1.67c1.52,0.66,2.86,1.47,4.01,2.45c1.16,0.98,2.06,2.17,2.72,3.57
			c0.66,1.41,0.99,3.11,0.99,5.1c0,0.54-0.06,1.27-0.17,2.18c-0.11,0.91-0.39,1.87-0.82,2.89c-0.43,1.02-1.04,2.05-1.84,3.09
			c-0.79,1.04-1.88,1.98-3.26,2.82c-1.38,0.84-3.09,1.52-5.13,2.04s-4.49,0.78-7.34,0.78c-2.86,0-5.51-0.33-7.96-0.99
			c-2.45-0.66-4.53-1.67-6.26-3.03c-1.72-1.36-3.05-3.11-3.98-5.24c-0.93-2.13-1.33-4.69-1.19-7.68h4.62
			C133.12,1282.72,133.51,1284.81,134.32,1286.49z"/>
		<path class="st13" d="M194.5,1265.95c-1.59-1.5-3.81-2.24-6.66-2.24c-2.04,0-3.83,0.43-5.37,1.29c-1.54,0.86-2.82,2-3.84,3.4
			c-1.02,1.41-1.79,3-2.31,4.79c-0.52,1.79-0.78,3.62-0.78,5.47c0,1.86,0.26,3.68,0.78,5.47c0.52,1.79,1.29,3.39,2.31,4.79
			c1.02,1.41,2.3,2.54,3.84,3.4c1.54,0.86,3.33,1.29,5.37,1.29c1.31,0,2.56-0.25,3.74-0.75c1.18-0.5,2.22-1.19,3.13-2.07
			c0.91-0.88,1.65-1.94,2.24-3.16c0.59-1.22,0.95-2.56,1.09-4.01h4.28c-0.59,4.26-2.15,7.58-4.69,9.96
			c-2.54,2.38-5.8,3.57-9.79,3.57c-2.68,0-5.04-0.49-7.11-1.46c-2.06-0.97-3.8-2.3-5.2-3.98c-1.41-1.68-2.47-3.64-3.2-5.88
			c-0.73-2.24-1.09-4.63-1.09-7.17c0-2.54,0.36-4.93,1.09-7.17c0.72-2.24,1.79-4.2,3.2-5.88c1.41-1.68,3.14-3.01,5.2-4.01
			c2.06-1,4.43-1.5,7.11-1.5c3.76,0,6.95,1,9.55,2.99c2.61,2,4.16,5.01,4.66,9.04h-4.28
			C197.17,1269.51,196.09,1267.45,194.5,1265.95z"/>
		<path class="st13" d="M212.66,1247.66v6.87h-4.28v-6.87H212.66z M212.66,1261.12v35.09h-4.28v-35.09H212.66z"/>
		<path class="st13" d="M224.05,1284.62c0.43,1.66,1.12,3.14,2.07,4.45c0.95,1.32,2.15,2.4,3.6,3.26c1.45,0.86,3.2,1.29,5.24,1.29
			c3.13,0,5.58-0.82,7.34-2.45s2.99-3.81,3.67-6.53h4.28c-0.91,3.99-2.57,7.07-5,9.25c-2.43,2.18-5.86,3.26-10.3,3.26
			c-2.77,0-5.16-0.49-7.17-1.46c-2.02-0.97-3.66-2.31-4.93-4.01c-1.27-1.7-2.21-3.67-2.82-5.92c-0.61-2.24-0.92-4.61-0.92-7.11
			c0-2.31,0.31-4.58,0.92-6.8c0.61-2.22,1.55-4.2,2.82-5.95c1.27-1.75,2.91-3.15,4.93-4.22c2.02-1.06,4.41-1.6,7.17-1.6
			c2.81,0,5.21,0.57,7.21,1.7c1.99,1.13,3.61,2.62,4.86,4.45s2.14,3.94,2.69,6.32s0.77,4.79,0.68,7.24h-27
			C223.4,1281.36,223.62,1282.96,224.05,1284.62z M245.26,1271.53c-0.52-1.5-1.26-2.82-2.21-3.98s-2.11-2.08-3.47-2.79
			c-1.36-0.7-2.9-1.05-4.62-1.05c-1.77,0-3.33,0.35-4.69,1.05c-1.36,0.7-2.52,1.63-3.47,2.79s-1.71,2.49-2.28,4.01
			c-0.57,1.52-0.94,3.07-1.12,4.66h22.71C246.07,1274.59,245.78,1273.02,245.26,1271.53z"/>
		<path class="st13" d="M260.39,1261.12v6.05h0.14c0.82-2.13,2.27-3.84,4.35-5.13c2.08-1.29,4.37-1.94,6.87-1.94
			c2.45,0,4.5,0.32,6.15,0.95c1.65,0.64,2.98,1.53,3.98,2.69c1,1.16,1.7,2.57,2.11,4.25c0.41,1.68,0.61,3.56,0.61,5.64v22.58h-4.28
			v-21.9c0-1.5-0.14-2.89-0.41-4.18c-0.27-1.29-0.75-2.41-1.43-3.37c-0.68-0.95-1.6-1.7-2.75-2.24c-1.16-0.54-2.6-0.82-4.32-0.82
			s-3.25,0.31-4.59,0.92s-2.47,1.45-3.4,2.52c-0.93,1.07-1.66,2.34-2.18,3.81c-0.52,1.47-0.81,3.07-0.85,4.79v20.47h-4.28v-35.09
			H260.39z"/>
		<path class="st13" d="M314.18,1265.95c-1.59-1.5-3.81-2.24-6.66-2.24c-2.04,0-3.83,0.43-5.37,1.29c-1.54,0.86-2.82,2-3.84,3.4
			c-1.02,1.41-1.79,3-2.31,4.79c-0.52,1.79-0.78,3.62-0.78,5.47c0,1.86,0.26,3.68,0.78,5.47c0.52,1.79,1.29,3.39,2.31,4.79
			c1.02,1.41,2.3,2.54,3.84,3.4c1.54,0.86,3.33,1.29,5.37,1.29c1.31,0,2.56-0.25,3.74-0.75c1.18-0.5,2.22-1.19,3.13-2.07
			c0.91-0.88,1.65-1.94,2.24-3.16c0.59-1.22,0.95-2.56,1.09-4.01H322c-0.59,4.26-2.15,7.58-4.69,9.96c-2.54,2.38-5.8,3.57-9.79,3.57
			c-2.68,0-5.04-0.49-7.11-1.46c-2.06-0.97-3.8-2.3-5.2-3.98c-1.41-1.68-2.47-3.64-3.2-5.88c-0.73-2.24-1.09-4.63-1.09-7.17
			c0-2.54,0.36-4.93,1.09-7.17c0.72-2.24,1.79-4.2,3.2-5.88c1.41-1.68,3.14-3.01,5.2-4.01c2.06-1,4.43-1.5,7.11-1.5
			c3.76,0,6.95,1,9.55,2.99c2.61,2,4.16,5.01,4.66,9.04h-4.28C316.85,1269.51,315.77,1267.45,314.18,1265.95z"/>
		<path class="st13" d="M331.15,1284.62c0.43,1.66,1.12,3.14,2.07,4.45c0.95,1.32,2.15,2.4,3.6,3.26c1.45,0.86,3.2,1.29,5.24,1.29
			c3.13,0,5.58-0.82,7.34-2.45s2.99-3.81,3.67-6.53h4.28c-0.91,3.99-2.57,7.07-5,9.25c-2.43,2.18-5.86,3.26-10.3,3.26
			c-2.77,0-5.16-0.49-7.17-1.46c-2.02-0.97-3.66-2.31-4.93-4.01c-1.27-1.7-2.21-3.67-2.82-5.92c-0.61-2.24-0.92-4.61-0.92-7.11
			c0-2.31,0.31-4.58,0.92-6.8c0.61-2.22,1.55-4.2,2.82-5.95c1.27-1.75,2.91-3.15,4.93-4.22c2.02-1.06,4.41-1.6,7.17-1.6
			c2.81,0,5.21,0.57,7.21,1.7c1.99,1.13,3.61,2.62,4.86,4.45s2.14,3.94,2.69,6.32s0.77,4.79,0.68,7.24h-27
			C330.5,1281.36,330.71,1282.96,331.15,1284.62z M352.36,1271.53c-0.52-1.5-1.26-2.82-2.21-3.98s-2.11-2.08-3.47-2.79
			c-1.36-0.7-2.9-1.05-4.62-1.05c-1.77,0-3.33,0.35-4.69,1.05c-1.36,0.7-2.52,1.63-3.47,2.79s-1.71,2.49-2.28,4.01
			c-0.57,1.52-0.94,3.07-1.12,4.66h22.71C353.17,1274.59,352.88,1273.02,352.36,1271.53z"/>
		<path class="st13" d="M413.8,1247.66v3.94h-26.18v17.54h23.26v3.94h-23.26v23.12H383v-48.55H413.8z"/>
		<path class="st13" d="M423.05,1247.66v6.87h-4.28v-6.87H423.05z M423.05,1261.12v35.09h-4.28v-35.09H423.05z"/>
		<path class="st13" d="M452.76,1265.95c-1.59-1.5-3.81-2.24-6.66-2.24c-2.04,0-3.83,0.43-5.37,1.29c-1.54,0.86-2.82,2-3.84,3.4
			c-1.02,1.41-1.79,3-2.31,4.79c-0.52,1.79-0.78,3.62-0.78,5.47c0,1.86,0.26,3.68,0.78,5.47c0.52,1.79,1.29,3.39,2.31,4.79
			c1.02,1.41,2.3,2.54,3.84,3.4c1.54,0.86,3.33,1.29,5.37,1.29c1.31,0,2.56-0.25,3.74-0.75c1.18-0.5,2.22-1.19,3.13-2.07
			c0.91-0.88,1.65-1.94,2.24-3.16c0.59-1.22,0.95-2.56,1.09-4.01h4.28c-0.59,4.26-2.15,7.58-4.69,9.96
			c-2.54,2.38-5.8,3.57-9.79,3.57c-2.68,0-5.04-0.49-7.11-1.46c-2.06-0.97-3.8-2.3-5.2-3.98c-1.41-1.68-2.47-3.64-3.2-5.88
			c-0.73-2.24-1.09-4.63-1.09-7.17c0-2.54,0.36-4.93,1.09-7.17c0.72-2.24,1.79-4.2,3.2-5.88c1.41-1.68,3.14-3.01,5.2-4.01
			c2.06-1,4.43-1.5,7.11-1.5c3.76,0,6.95,1,9.55,2.99c2.61,2,4.16,5.01,4.66,9.04h-4.28
			C455.44,1269.51,454.35,1267.45,452.76,1265.95z"/>
		<path class="st13" d="M480.51,1261.12v3.6h-7.14v23.66c0,1.41,0.19,2.51,0.58,3.3c0.38,0.79,1.35,1.24,2.89,1.33
			c1.22,0,2.45-0.07,3.67-0.2v3.6c-0.63,0-1.27,0.02-1.9,0.07c-0.64,0.04-1.27,0.07-1.9,0.07c-2.86,0-4.85-0.55-5.98-1.67
			c-1.13-1.11-1.68-3.16-1.63-6.15v-24h-6.12v-3.6h6.12v-10.54h4.28v10.54H480.51z"/>
		<path class="st13" d="M491.04,1247.66v6.87h-4.28v-6.87H491.04z M491.04,1261.12v35.09h-4.28v-35.09H491.04z"/>
		<path class="st13" d="M521.2,1261.6c2.06,1,3.8,2.34,5.2,4.01c1.4,1.68,2.47,3.64,3.2,5.88c0.72,2.24,1.09,4.64,1.09,7.17
			c0,2.54-0.36,4.93-1.09,7.17c-0.73,2.24-1.79,4.21-3.2,5.88c-1.41,1.68-3.14,3-5.2,3.98c-2.06,0.97-4.43,1.46-7.11,1.46
			c-2.68,0-5.04-0.49-7.11-1.46c-2.06-0.97-3.8-2.3-5.2-3.98c-1.41-1.68-2.47-3.64-3.2-5.88c-0.73-2.24-1.09-4.63-1.09-7.17
			c0-2.54,0.36-4.93,1.09-7.17c0.72-2.24,1.79-4.2,3.2-5.88c1.41-1.68,3.14-3.01,5.2-4.01c2.06-1,4.43-1.5,7.11-1.5
			C516.77,1260.1,519.14,1260.6,521.2,1261.6z M508.73,1265c-1.54,0.86-2.82,2-3.84,3.4c-1.02,1.41-1.79,3-2.31,4.79
			c-0.52,1.79-0.78,3.62-0.78,5.47c0,1.86,0.26,3.68,0.78,5.47c0.52,1.79,1.29,3.39,2.31,4.79c1.02,1.41,2.3,2.54,3.84,3.4
			c1.54,0.86,3.33,1.29,5.37,1.29s3.83-0.43,5.37-1.29c1.54-0.86,2.82-1.99,3.84-3.4c1.02-1.4,1.79-3,2.31-4.79
			c0.52-1.79,0.78-3.61,0.78-5.47c0-1.86-0.26-3.68-0.78-5.47c-0.52-1.79-1.29-3.39-2.31-4.79c-1.02-1.41-2.3-2.54-3.84-3.4
			c-1.54-0.86-3.33-1.29-5.37-1.29S510.27,1264.14,508.73,1265z"/>
		<path class="st13" d="M541.3,1261.12v6.05h0.14c0.82-2.13,2.27-3.84,4.35-5.13c2.08-1.29,4.37-1.94,6.87-1.94
			c2.45,0,4.5,0.32,6.15,0.95c1.65,0.64,2.98,1.53,3.98,2.69c1,1.16,1.7,2.57,2.11,4.25c0.41,1.68,0.61,3.56,0.61,5.64v22.58h-4.28
			v-21.9c0-1.5-0.14-2.89-0.41-4.18c-0.27-1.29-0.75-2.41-1.43-3.37c-0.68-0.95-1.6-1.7-2.75-2.24c-1.16-0.54-2.6-0.82-4.32-0.82
			s-3.25,0.31-4.59,0.92s-2.47,1.45-3.4,2.52c-0.93,1.07-1.66,2.34-2.18,3.81c-0.52,1.47-0.81,3.07-0.85,4.79v20.47h-4.28v-35.09
			H541.3z"/>
		<path class="st13" d="M613.72,1295.19c-2.45,1.31-5.1,1.97-7.96,1.97c-2.09,0-4.02-0.3-5.81-0.88c-1.79-0.59-3.34-1.45-4.66-2.58
			c-1.32-1.13-2.35-2.54-3.09-4.22c-0.75-1.68-1.12-3.63-1.12-5.85c0-1.72,0.36-3.31,1.09-4.76c0.72-1.45,1.67-2.76,2.82-3.94
			c1.16-1.18,2.44-2.24,3.84-3.2c1.4-0.95,2.79-1.79,4.15-2.52c-0.68-0.86-1.37-1.73-2.07-2.62s-1.34-1.8-1.9-2.75
			c-0.57-0.95-1.04-1.95-1.43-2.99c-0.39-1.04-0.58-2.15-0.58-3.33c0-1.5,0.28-2.84,0.85-4.05c0.57-1.2,1.34-2.23,2.31-3.09
			c0.97-0.86,2.11-1.53,3.4-2.01c1.29-0.48,2.69-0.71,4.18-0.71c1.5,0,2.89,0.24,4.18,0.71c1.29,0.48,2.42,1.15,3.4,2.01
			c0.97,0.86,1.75,1.89,2.31,3.09c0.57,1.2,0.85,2.55,0.85,4.05s-0.27,2.86-0.82,4.08c-0.54,1.22-1.26,2.34-2.14,3.33
			c-0.88,1-1.89,1.92-3.03,2.75c-1.13,0.84-2.31,1.64-3.54,2.41l10.61,12.78c0.59-1.18,0.97-2.37,1.16-3.57
			c0.18-1.2,0.27-2.73,0.27-4.59h4.28c0,1.36-0.19,3.12-0.58,5.27c-0.39,2.15-1.15,4.27-2.28,6.36l8.16,9.86h-5.37l-5.17-6.32
			C618.27,1292.11,616.16,1293.88,613.72,1295.19z M601.75,1274.11c-1.18,0.77-2.24,1.66-3.2,2.65c-0.95,1-1.72,2.1-2.31,3.3
			c-0.59,1.2-0.88,2.53-0.88,3.98c0,1.41,0.29,2.7,0.88,3.88c0.59,1.18,1.37,2.2,2.35,3.06c0.97,0.86,2.1,1.52,3.37,1.97
			c1.27,0.45,2.58,0.68,3.94,0.68c2.45,0,4.63-0.67,6.56-2.01c1.93-1.34,3.57-2.98,4.93-4.93l-12.1-14.69
			C604.1,1272.64,602.93,1273.34,601.75,1274.11z M603.18,1252.86c-1.27,1.07-1.9,2.62-1.9,4.66c0,0.86,0.18,1.73,0.54,2.62
			c0.36,0.88,0.82,1.75,1.36,2.58c0.54,0.84,1.13,1.66,1.77,2.45c0.63,0.79,1.22,1.51,1.77,2.14c0.86-0.54,1.73-1.13,2.62-1.77
			c0.88-0.63,1.69-1.35,2.41-2.14c0.72-0.79,1.31-1.68,1.77-2.65c0.45-0.97,0.68-2.05,0.68-3.23c0-2.04-0.64-3.59-1.9-4.66
			c-1.27-1.07-2.79-1.6-4.56-1.6C605.96,1251.26,604.44,1251.8,603.18,1252.86z"/>
		<path class="st13" d="M684.57,1247.66v3.94h-26.18v17.54h23.26v3.94h-23.26v23.12h-4.62v-48.55H684.57z"/>
		<path class="st13" d="M690.35,1266.56c0.72-1.5,1.71-2.72,2.96-3.67c1.25-0.95,2.71-1.65,4.39-2.11c1.68-0.45,3.54-0.68,5.58-0.68
			c1.54,0,3.08,0.15,4.62,0.44c1.54,0.29,2.92,0.85,4.15,1.67c1.22,0.82,2.22,1.96,2.99,3.43c0.77,1.47,1.16,3.39,1.16,5.75v18.63
			c0,1.72,0.84,2.58,2.52,2.58c0.5,0,0.95-0.09,1.36-0.27v3.6c-0.5,0.09-0.94,0.16-1.33,0.2c-0.38,0.05-0.87,0.07-1.46,0.07
			c-1.09,0-1.96-0.15-2.62-0.44c-0.66-0.29-1.17-0.71-1.53-1.26c-0.36-0.54-0.6-1.19-0.71-1.94c-0.11-0.75-0.17-1.58-0.17-2.48
			h-0.14c-0.77,1.13-1.55,2.14-2.35,3.03c-0.79,0.88-1.68,1.62-2.65,2.21c-0.97,0.59-2.08,1.04-3.33,1.36s-2.73,0.48-4.45,0.48
			c-1.63,0-3.16-0.19-4.59-0.58c-1.43-0.38-2.67-1-3.74-1.84c-1.07-0.84-1.9-1.9-2.52-3.2c-0.61-1.29-0.92-2.82-0.92-4.59
			c0-2.45,0.54-4.36,1.63-5.75c1.09-1.38,2.53-2.44,4.32-3.16c1.79-0.72,3.81-1.23,6.05-1.53s4.52-0.58,6.83-0.85
			c0.91-0.09,1.7-0.2,2.38-0.34c0.68-0.14,1.25-0.37,1.7-0.71s0.8-0.8,1.05-1.39c0.25-0.59,0.37-1.36,0.37-2.31
			c0-1.45-0.24-2.64-0.71-3.57c-0.48-0.93-1.13-1.67-1.97-2.21c-0.84-0.54-1.81-0.92-2.92-1.12c-1.11-0.2-2.3-0.31-3.57-0.31
			c-2.72,0-4.94,0.65-6.66,1.94c-1.72,1.29-2.63,3.37-2.72,6.22h-4.28C689.19,1269.83,689.62,1268.06,690.35,1266.56z
			 M711.77,1277.03c-0.27,0.5-0.79,0.86-1.56,1.09c-0.77,0.23-1.45,0.39-2.04,0.48c-1.81,0.32-3.68,0.6-5.61,0.85
			c-1.93,0.25-3.68,0.62-5.27,1.12c-1.59,0.5-2.89,1.21-3.91,2.14c-1.02,0.93-1.53,2.26-1.53,3.98c0,1.09,0.21,2.05,0.65,2.89
			c0.43,0.84,1.01,1.56,1.73,2.18c0.72,0.61,1.56,1.08,2.52,1.39c0.95,0.32,1.93,0.48,2.92,0.48c1.63,0,3.2-0.25,4.69-0.75
			c1.5-0.5,2.8-1.22,3.91-2.18c1.11-0.95,1.99-2.11,2.65-3.47c0.66-1.36,0.99-2.9,0.99-4.62v-5.58H711.77z"/>
		<path class="st13" d="M728.97,1261.12v6.05h0.14c0.82-2.13,2.27-3.84,4.35-5.13c2.08-1.29,4.37-1.94,6.87-1.94
			c2.45,0,4.5,0.32,6.15,0.95c1.65,0.64,2.98,1.53,3.98,2.69c1,1.16,1.7,2.57,2.11,4.25c0.41,1.68,0.61,3.56,0.61,5.64v22.58h-4.28
			v-21.9c0-1.5-0.14-2.89-0.41-4.18c-0.27-1.29-0.75-2.41-1.43-3.37c-0.68-0.95-1.6-1.7-2.75-2.24c-1.16-0.54-2.6-0.82-4.32-0.82
			s-3.25,0.31-4.59,0.92s-2.47,1.45-3.4,2.52c-0.93,1.07-1.66,2.34-2.18,3.81c-0.52,1.47-0.81,3.07-0.85,4.79v20.47h-4.28v-35.09
			H728.97z"/>
		<path class="st13" d="M775.21,1261.12v3.6h-7.14v23.66c0,1.41,0.19,2.51,0.58,3.3c0.38,0.79,1.35,1.24,2.89,1.33
			c1.22,0,2.45-0.07,3.67-0.2v3.6c-0.63,0-1.27,0.02-1.9,0.07c-0.64,0.04-1.27,0.07-1.9,0.07c-2.86,0-4.85-0.55-5.98-1.67
			c-1.13-1.11-1.68-3.16-1.63-6.15v-24h-6.12v-3.6h6.12v-10.54h4.28v10.54H775.21z"/>
		<path class="st13" d="M782.29,1266.56c0.72-1.5,1.71-2.72,2.96-3.67c1.25-0.95,2.71-1.65,4.39-2.11c1.68-0.45,3.54-0.68,5.58-0.68
			c1.54,0,3.08,0.15,4.62,0.44c1.54,0.29,2.92,0.85,4.15,1.67c1.22,0.82,2.22,1.96,2.99,3.43c0.77,1.47,1.16,3.39,1.16,5.75v18.63
			c0,1.72,0.84,2.58,2.52,2.58c0.5,0,0.95-0.09,1.36-0.27v3.6c-0.5,0.09-0.94,0.16-1.33,0.2c-0.38,0.05-0.87,0.07-1.46,0.07
			c-1.09,0-1.96-0.15-2.62-0.44c-0.66-0.29-1.17-0.71-1.53-1.26c-0.36-0.54-0.6-1.19-0.71-1.94c-0.11-0.75-0.17-1.58-0.17-2.48
			h-0.14c-0.77,1.13-1.55,2.14-2.35,3.03c-0.79,0.88-1.68,1.62-2.65,2.21c-0.97,0.59-2.08,1.04-3.33,1.36s-2.73,0.48-4.45,0.48
			c-1.63,0-3.16-0.19-4.59-0.58c-1.43-0.38-2.67-1-3.74-1.84c-1.07-0.84-1.9-1.9-2.52-3.2c-0.61-1.29-0.92-2.82-0.92-4.59
			c0-2.45,0.54-4.36,1.63-5.75c1.09-1.38,2.53-2.44,4.32-3.16c1.79-0.72,3.81-1.23,6.05-1.53s4.52-0.58,6.83-0.85
			c0.91-0.09,1.7-0.2,2.38-0.34c0.68-0.14,1.25-0.37,1.7-0.71s0.8-0.8,1.05-1.39c0.25-0.59,0.37-1.36,0.37-2.31
			c0-1.45-0.24-2.64-0.71-3.57c-0.48-0.93-1.13-1.67-1.97-2.21c-0.84-0.54-1.81-0.92-2.92-1.12c-1.11-0.2-2.3-0.31-3.57-0.31
			c-2.72,0-4.94,0.65-6.66,1.94c-1.72,1.29-2.63,3.37-2.72,6.22h-4.28C781.13,1269.83,781.56,1268.06,782.29,1266.56z
			 M803.71,1277.03c-0.27,0.5-0.79,0.86-1.56,1.09c-0.77,0.23-1.45,0.39-2.04,0.48c-1.81,0.32-3.68,0.6-5.61,0.85
			c-1.93,0.25-3.68,0.62-5.27,1.12c-1.59,0.5-2.89,1.21-3.91,2.14c-1.02,0.93-1.53,2.26-1.53,3.98c0,1.09,0.21,2.05,0.65,2.89
			c0.43,0.84,1.01,1.56,1.73,2.18c0.72,0.61,1.56,1.08,2.52,1.39c0.95,0.32,1.93,0.48,2.92,0.48c1.63,0,3.2-0.25,4.69-0.75
			c1.5-0.5,2.8-1.22,3.91-2.18c1.11-0.95,1.99-2.11,2.65-3.47c0.66-1.36,0.99-2.9,0.99-4.62v-5.58H803.71z"/>
		<path class="st13" d="M836.89,1267.96c-0.5-0.97-1.17-1.78-2.01-2.41c-0.84-0.63-1.8-1.1-2.89-1.39s-2.24-0.44-3.47-0.44
			c-0.95,0-1.92,0.1-2.89,0.31c-0.98,0.2-1.87,0.54-2.69,1.02c-0.82,0.48-1.47,1.1-1.97,1.87c-0.5,0.77-0.75,1.72-0.75,2.86
			c0,0.95,0.24,1.76,0.71,2.41c0.48,0.66,1.08,1.21,1.8,1.67c0.72,0.45,1.52,0.83,2.38,1.12c0.86,0.29,1.65,0.53,2.38,0.71
			l5.71,1.29c1.22,0.18,2.44,0.51,3.64,0.99c1.2,0.48,2.27,1.1,3.2,1.87c0.93,0.77,1.69,1.72,2.28,2.86
			c0.59,1.13,0.88,2.47,0.88,4.01c0,1.9-0.43,3.53-1.29,4.86c-0.86,1.34-1.96,2.43-3.3,3.26c-1.34,0.84-2.84,1.44-4.52,1.8
			c-1.68,0.36-3.33,0.54-4.96,0.54c-4.13,0-7.47-0.97-10.03-2.92c-2.56-1.95-4.02-5.08-4.39-9.38H819c0.18,2.9,1.24,5.09,3.16,6.56
			c1.93,1.47,4.32,2.21,7.17,2.21c1.04,0,2.12-0.11,3.23-0.34c1.11-0.23,2.14-0.61,3.09-1.16s1.73-1.23,2.35-2.07
			c0.61-0.84,0.92-1.87,0.92-3.09c0-1.04-0.22-1.92-0.65-2.62c-0.43-0.7-1.01-1.29-1.73-1.77c-0.73-0.48-1.55-0.87-2.48-1.19
			c-0.93-0.32-1.87-0.59-2.82-0.82l-5.51-1.22c-1.41-0.36-2.7-0.78-3.88-1.26c-1.18-0.48-2.21-1.06-3.09-1.77
			c-0.88-0.7-1.58-1.56-2.07-2.58c-0.5-1.02-0.75-2.28-0.75-3.77c0-1.77,0.4-3.29,1.19-4.56c0.79-1.27,1.82-2.29,3.09-3.06
			c1.27-0.77,2.69-1.34,4.25-1.7c1.56-0.36,3.12-0.54,4.66-0.54c1.77,0,3.41,0.23,4.93,0.68c1.52,0.45,2.86,1.16,4.01,2.11
			s2.07,2.13,2.75,3.54c0.68,1.41,1.06,3.06,1.16,4.96h-4.28C837.66,1270.08,837.39,1268.93,836.89,1267.96z"/>
		<path class="st13" d="M850.01,1261.12l11.56,29.92l10.81-29.92h4.28l-15.23,40.39c-0.64,1.5-1.22,2.73-1.77,3.71
			c-0.54,0.97-1.15,1.75-1.8,2.31c-0.66,0.57-1.43,0.97-2.31,1.22c-0.88,0.25-2.01,0.37-3.37,0.37c-0.86-0.05-1.53-0.08-2.01-0.1
			c-0.48-0.02-0.9-0.1-1.26-0.24v-3.6c0.5,0.09,0.99,0.17,1.46,0.24c0.48,0.07,0.96,0.1,1.46,0.1c0.95,0,1.73-0.14,2.35-0.41
			c0.61-0.27,1.14-0.65,1.6-1.12c0.45-0.48,0.84-1.05,1.16-1.73c0.32-0.68,0.66-1.43,1.02-2.24l1.5-3.94l-14.01-34.95H850.01z"/>
		<path class="st13" d="M921.14,1247.66c2.04,0,4,0.19,5.88,0.58c1.88,0.39,3.54,1.04,4.96,1.97c1.43,0.93,2.57,2.15,3.43,3.67
			c0.86,1.52,1.29,3.41,1.29,5.68c0,1.27-0.2,2.51-0.61,3.71c-0.41,1.2-0.99,2.29-1.73,3.26s-1.63,1.8-2.65,2.48
			c-1.02,0.68-2.17,1.16-3.43,1.43v0.14c3.13,0.41,5.62,1.69,7.48,3.84c1.86,2.15,2.79,4.82,2.79,7.99c0,0.77-0.07,1.64-0.2,2.62
			c-0.14,0.97-0.41,1.97-0.82,2.99c-0.41,1.02-1,2.03-1.77,3.03c-0.77,1-1.8,1.87-3.09,2.62s-2.88,1.36-4.76,1.84
			c-1.88,0.48-4.14,0.71-6.77,0.71H900.6v-48.55H921.14z M921.14,1268.94c1.86,0,3.47-0.21,4.83-0.65c1.36-0.43,2.49-1.02,3.4-1.77
			c0.91-0.75,1.59-1.62,2.04-2.62c0.45-1,0.68-2.06,0.68-3.2c0-6.07-3.65-9.11-10.95-9.11h-15.91v17.34H921.14z M921.14,1292.27
			c1.72,0,3.35-0.15,4.9-0.44c1.54-0.29,2.9-0.83,4.08-1.6c1.18-0.77,2.11-1.8,2.79-3.09c0.68-1.29,1.02-2.91,1.02-4.86
			c0-3.13-1.1-5.47-3.3-7.04c-2.2-1.56-5.36-2.35-9.49-2.35h-15.91v19.38H921.14z"/>
		<path class="st13" d="M967.07,1261.6c2.06,1,3.8,2.34,5.2,4.01c1.4,1.68,2.47,3.64,3.2,5.88c0.72,2.24,1.09,4.64,1.09,7.17
			c0,2.54-0.36,4.93-1.09,7.17c-0.73,2.24-1.79,4.21-3.2,5.88c-1.41,1.68-3.14,3-5.2,3.98c-2.06,0.97-4.43,1.46-7.11,1.46
			c-2.68,0-5.04-0.49-7.11-1.46c-2.06-0.97-3.8-2.3-5.2-3.98c-1.41-1.68-2.47-3.64-3.2-5.88c-0.73-2.24-1.09-4.63-1.09-7.17
			c0-2.54,0.36-4.93,1.09-7.17c0.72-2.24,1.79-4.2,3.2-5.88c1.41-1.68,3.14-3.01,5.2-4.01c2.06-1,4.43-1.5,7.11-1.5
			C962.64,1260.1,965.01,1260.6,967.07,1261.6z M954.6,1265c-1.54,0.86-2.82,2-3.84,3.4c-1.02,1.41-1.79,3-2.31,4.79
			c-0.52,1.79-0.78,3.62-0.78,5.47c0,1.86,0.26,3.68,0.78,5.47c0.52,1.79,1.29,3.39,2.31,4.79c1.02,1.41,2.3,2.54,3.84,3.4
			c1.54,0.86,3.33,1.29,5.37,1.29s3.83-0.43,5.37-1.29c1.54-0.86,2.82-1.99,3.84-3.4c1.02-1.4,1.79-3,2.31-4.79
			c0.52-1.79,0.78-3.61,0.78-5.47c0-1.86-0.26-3.68-0.78-5.47c-0.52-1.79-1.29-3.39-2.31-4.79c-1.02-1.41-2.3-2.54-3.84-3.4
			c-1.54-0.86-3.33-1.29-5.37-1.29S956.14,1264.14,954.6,1265z"/>
		<path class="st13" d="M1004.88,1261.6c2.06,1,3.8,2.34,5.2,4.01c1.4,1.68,2.47,3.64,3.2,5.88c0.72,2.24,1.09,4.64,1.09,7.17
			c0,2.54-0.36,4.93-1.09,7.17c-0.73,2.24-1.79,4.21-3.2,5.88c-1.41,1.68-3.14,3-5.2,3.98c-2.06,0.97-4.43,1.46-7.11,1.46
			c-2.68,0-5.04-0.49-7.11-1.46c-2.06-0.97-3.8-2.3-5.2-3.98c-1.41-1.68-2.47-3.64-3.2-5.88c-0.73-2.24-1.09-4.63-1.09-7.17
			c0-2.54,0.36-4.93,1.09-7.17c0.72-2.24,1.79-4.2,3.2-5.88c1.41-1.68,3.14-3.01,5.2-4.01c2.06-1,4.43-1.5,7.11-1.5
			C1000.45,1260.1,1002.82,1260.6,1004.88,1261.6z M992.4,1265c-1.54,0.86-2.82,2-3.84,3.4c-1.02,1.41-1.79,3-2.31,4.79
			c-0.52,1.79-0.78,3.62-0.78,5.47c0,1.86,0.26,3.68,0.78,5.47c0.52,1.79,1.29,3.39,2.31,4.79c1.02,1.41,2.3,2.54,3.84,3.4
			c1.54,0.86,3.33,1.29,5.37,1.29s3.83-0.43,5.37-1.29c1.54-0.86,2.82-1.99,3.84-3.4c1.02-1.4,1.79-3,2.31-4.79
			c0.52-1.79,0.78-3.61,0.78-5.47c0-1.86-0.26-3.68-0.78-5.47c-0.52-1.79-1.29-3.39-2.31-4.79c-1.02-1.41-2.3-2.54-3.84-3.4
			c-1.54-0.86-3.33-1.29-5.37-1.29S993.94,1264.14,992.4,1265z"/>
		<path class="st13" d="M1025.04,1247.66v30.46l19.45-17h5.71l-14.96,12.99l15.98,22.1h-5.37l-13.87-19.11l-6.94,5.78v13.33h-4.28
			v-48.55H1025.04z"/>
		<path class="st13" d="M1107.97,1257.35c-0.93-1.47-2.06-2.71-3.4-3.71c-1.34-1-2.81-1.76-4.42-2.28c-1.61-0.52-3.3-0.78-5.07-0.78
			c-3.22,0-5.98,0.61-8.3,1.84c-2.31,1.22-4.21,2.85-5.68,4.86c-1.47,2.02-2.56,4.29-3.26,6.83c-0.7,2.54-1.05,5.15-1.05,7.82
			c0,2.63,0.35,5.23,1.05,7.79c0.7,2.56,1.79,4.85,3.26,6.87c1.47,2.02,3.37,3.64,5.68,4.86c2.31,1.22,5.08,1.84,8.3,1.84
			c2.27,0,4.31-0.41,6.12-1.22c1.81-0.82,3.38-1.93,4.69-3.33c1.31-1.4,2.38-3.05,3.2-4.93c0.82-1.88,1.34-3.91,1.56-6.09h4.62
			c-0.32,2.99-1.02,5.69-2.11,8.09c-1.09,2.4-2.49,4.44-4.22,6.12c-1.72,1.68-3.75,2.97-6.09,3.88c-2.34,0.91-4.93,1.36-7.79,1.36
			c-3.81,0-7.15-0.69-10.03-2.07c-2.88-1.38-5.27-3.23-7.17-5.54c-1.9-2.31-3.33-4.99-4.28-8.02c-0.95-3.04-1.43-6.23-1.43-9.59
			c0-3.35,0.48-6.55,1.43-9.59c0.95-3.04,2.38-5.72,4.28-8.06c1.9-2.33,4.29-4.19,7.17-5.58c2.88-1.38,6.22-2.07,10.03-2.07
			c2.31,0,4.57,0.34,6.77,1.02c2.2,0.68,4.19,1.69,5.98,3.03c1.79,1.34,3.29,2.98,4.49,4.93c1.2,1.95,1.96,4.19,2.28,6.73h-4.62
			C1109.57,1260.49,1108.9,1258.82,1107.97,1257.35z"/>
		<path class="st13" d="M1125.89,1247.66v48.55h-4.28v-48.55H1125.89z"/>
		<path class="st13" d="M1158.59,1296.21v-6.32h-0.14c-1.13,2.36-2.78,4.16-4.93,5.41c-2.15,1.25-4.55,1.87-7.17,1.87
			c-2.22,0-4.11-0.31-5.68-0.92c-1.56-0.61-2.83-1.48-3.81-2.62c-0.98-1.13-1.69-2.52-2.14-4.15c-0.45-1.63-0.68-3.49-0.68-5.58
			v-22.78h4.28v22.85c0.09,3.17,0.83,5.58,2.21,7.21s3.77,2.45,7.17,2.45c1.86,0,3.45-0.4,4.76-1.19c1.31-0.79,2.4-1.85,3.26-3.16
			c0.86-1.31,1.5-2.82,1.9-4.52c0.41-1.7,0.61-3.43,0.61-5.2v-18.43h4.28v35.09H1158.59z"/>
		<path class="st13" d="M1174.91,1247.66v20.13h0.14c0.45-1.27,1.1-2.38,1.94-3.33c0.84-0.95,1.8-1.76,2.89-2.41
			c1.09-0.66,2.27-1.14,3.54-1.46c1.27-0.32,2.54-0.48,3.81-0.48c2.67,0,5,0.5,6.97,1.5c1.97,1,3.62,2.35,4.93,4.05
			c1.31,1.7,2.29,3.67,2.92,5.92c0.63,2.24,0.95,4.61,0.95,7.11s-0.32,4.86-0.95,7.11c-0.64,2.24-1.61,4.22-2.92,5.92
			c-1.32,1.7-2.96,3.04-4.93,4.01c-1.97,0.97-4.29,1.46-6.97,1.46c-2.86,0-5.41-0.66-7.65-1.97c-2.24-1.31-3.87-3.2-4.86-5.64h-0.14
			v6.66h-3.94v-48.55H1174.91z M1198.07,1273.26c-0.43-1.79-1.11-3.39-2.04-4.79c-0.93-1.4-2.12-2.55-3.57-3.43
			c-1.45-0.88-3.2-1.33-5.24-1.33c-2.27,0-4.18,0.44-5.75,1.33c-1.56,0.88-2.83,2.03-3.81,3.43c-0.98,1.41-1.68,3-2.11,4.79
			c-0.43,1.79-0.65,3.59-0.65,5.41c0,1.81,0.21,3.62,0.65,5.41s1.13,3.39,2.11,4.79c0.97,1.41,2.24,2.55,3.81,3.43
			c1.56,0.88,3.48,1.33,5.75,1.33c2.04,0,3.79-0.44,5.24-1.33c1.45-0.88,2.64-2.03,3.57-3.43c0.93-1.41,1.61-3,2.04-4.79
			s0.65-3.59,0.65-5.41C1198.71,1276.85,1198.5,1275.05,1198.07,1273.26z"/>
	</g>
	<rect x="298.98" y="190.67" class="st13" width="26.33" height="63.33"/>
	<g>
	</g>
	<g>
	</g>
	<g>
	</g>
	<g>
	</g>
	<g>
	</g>
	<g>
	</g>
</g>
</svg>
